<svg width="240" height="240" viewBox="0 0 240 240" fill="none" xmlns="http://www.w3.org/2000/svg">
  <defs>
    <linearGradient id="investorBg" x1="22" y1="22" x2="216" y2="216" gradientUnits="userSpaceOnUse">
      <stop stop-color="#052E16"/>
      <stop offset="0.55" stop-color="#059669"/>
      <stop offset="1" stop-color="#34D399"/>
    </linearGradient>
    <linearGradient id="investorBody" x1="76" y1="76" x2="164" y2="160" gradientUnits="userSpaceOnUse">
      <stop stop-color="#ECFDF5"/>
      <stop offset="1" stop-color="#A7F3D0"/>
    </linearGradient>
  </defs>
  <circle cx="120" cy="120" r="112" fill="url(#investorBg)"/>
  <circle cx="170" cy="60" r="14" fill="#FDE68A" fill-opacity="0.9"/>
  <path d="M58 170C72 150 94 140 119 140C144 140 166 150 180 170" stroke="#D1FAE5" stroke-width="12" stroke-linecap="round" opacity="0.85"/>
  <rect x="74" y="72" width="92" height="74" rx="24" fill="url(#investorBody)"/>
  <circle cx="100" cy="101" r="8.5" fill="#14532D"/>
  <circle cx="140" cy="101" r="8.5" fill="#14532D"/>
  <path d="M99 122C106 128 134 128 141 122" stroke="#14532D" stroke-width="6" stroke-linecap="round"/>
  <path d="M100 53H140" stroke="#F8FAFC" stroke-width="8" stroke-linecap="round"/>
  <path d="M120 42V64" stroke="#F8FAFC" stroke-width="8" stroke-linecap="round"/>
  <path d="M82 186C93 192 106 195 120 195C134 195 147 192 158 186" stroke="#F8FAFC" stroke-opacity="0.8" stroke-width="8" stroke-linecap="round"/>
  <path d="M154 92L172 74" stroke="#FDE68A" stroke-width="7" stroke-linecap="round"/>
  <path d="M162 92H182" stroke="#FDE68A" stroke-width="7" stroke-linecap="round"/>
</svg>