<svg width="240" height="240" viewBox="0 0 240 240" fill="none" xmlns="http://www.w3.org/2000/svg">
  <defs>
    <linearGradient id="mentorBg" x1="26" y1="26" x2="214" y2="214" gradientUnits="userSpaceOnUse">
      <stop stop-color="#172554"/>
      <stop offset="0.52" stop-color="#2563EB"/>
      <stop offset="1" stop-color="#155E75"/>
    </linearGradient>
    <linearGradient id="mentorPanel" x1="74" y1="72" x2="165" y2="160" gradientUnits="userSpaceOnUse">
      <stop stop-color="#DBEAFE"/>
      <stop offset="1" stop-color="#BFDBFE"/>
    </linearGradient>
  </defs>
  <circle cx="120" cy="120" r="112" fill="url(#mentorBg)"/>
  <circle cx="66" cy="68" r="14" fill="#A5F3FC" fill-opacity="0.55"/>
  <path d="M60 167C73 150 94 140 116 140H124C146 140 167 150 180 167" stroke="#E0F2FE" stroke-width="12" stroke-linecap="round" opacity="0.85"/>
  <rect x="72" y="70" width="96" height="78" rx="26" fill="url(#mentorPanel)"/>
  <circle cx="99" cy="102" r="8.5" fill="#1E3A8A"/>
  <circle cx="141" cy="102" r="8.5" fill="#1E3A8A"/>
  <path d="M100 123C107 128.5 133 128.5 140 123" stroke="#1E3A8A" stroke-width="6" stroke-linecap="round"/>
  <path d="M121 40L136 58H106L121 40Z" fill="#F8FAFC"/>
  <path d="M91 55C99 49 109 46 120 46C131 46 141 49 149 55" stroke="#FDE68A" stroke-width="7" stroke-linecap="round"/>
  <path d="M82 186C92 192 105 195 120 195C135 195 148 192 158 186" stroke="#F8FAFC" stroke-opacity="0.75" stroke-width="8" stroke-linecap="round"/>
</svg>